<svg width="23" height="26" viewBox="0 0 23 26" fill="none" xmlns="http://www.w3.org/2000/svg">
<path id="Vector" d="M21.875 8.375C20.5625 2.6 15.525 0 11.1 0H11.0875C6.67497 0 1.62497 2.5875 0.312473 8.3625C-1.15003 14.8125 2.79997 20.275 6.37497 23.7125C7.64212 24.939 9.33647 25.6248 11.1 25.625C12.8 25.625 14.5 24.9875 15.8125 23.7125C19.3875 20.275 23.3375 14.825 21.875 8.375ZM11.1 14.6375C10.5829 14.6375 10.0709 14.5357 9.59316 14.3378C9.11544 14.1399 8.68137 13.8499 8.31574 13.4842C7.95011 13.1186 7.66007 12.6845 7.4622 12.2068C7.26432 11.7291 7.16247 11.2171 7.16247 10.7C7.16247 10.1829 7.26432 9.6709 7.4622 9.19318C7.66007 8.71546 7.95011 8.2814 8.31574 7.91577C8.68137 7.55014 9.11544 7.2601 9.59316 7.06222C10.0709 6.86435 10.5829 6.7625 11.1 6.7625C12.1443 6.7625 13.1458 7.17734 13.8842 7.91577C14.6226 8.65419 15.0375 9.65571 15.0375 10.7C15.0375 11.7443 14.6226 12.7458 13.8842 13.4842C13.1458 14.2227 12.1443 14.6375 11.1 14.6375Z" fill="white"/>
</svg>
